PathFileType	4	(X/Y/Z)	/Users/itak/Documents/Research/Walk-IL/dataset/trc/00222_00009.trc
DataRate	CameraRate	NumFrames	NumMarkers	Units	OrigDataRate	OrigDataStartFrame	OrigNumFrames
100.000000	100.000000	4	53	mm	100.000000	357	477
Frame#	Time	RPSI			LPSI			L3			STRN			T10			C7			CLAV			RBAK			LBAK			LSHO			LUPA			LAEL			LAOL			LWTS			LWPS			LFRA			LIFD			LHPS			LHTS			RSHO			RUPA			RAEL			RAOL			RWTS			RWPS			RFRA			RIFD			RHTS			RHPS			RBHD			LFHD			RFHD			LBHD			LHIP			RHIP			RASI			LASI			LKNE			LTHI			LANK			LTIP			LTOE			LMT1			LMT5			LHEE			RKNE			RANK			RTIP			RTOE			RMT1			RMT5			RHEE			RTHI			
		X1	Y1	Z1	X2	Y2	Z2	X3	Y3	Z3	X4	Y4	Z4	X5	Y5	Z5	X6	Y6	Z6	X7	Y7	Z7	X8	Y8	Z8	X9	Y9	Z9	X10	Y10	Z10	X11	Y11	Z11	X12	Y12	Z12	X13	Y13	Z13	X14	Y14	Z14	X15	Y15	Z15	X16	Y16	Z16	X17	Y17	Z17	X18	Y18	Z18	X19	Y19	Z19	X20	Y20	Z20	X21	Y21	Z21	X22	Y22	Z22	X23	Y23	Z23	X24	Y24	Z24	X25	Y25	Z25	X26	Y26	Z26	X27	Y27	Z27	X28	Y28	Z28	X29	Y29	Z29	X30	Y30	Z30	X31	Y31	Z31	X32	Y32	Z32	X33	Y33	Z33	X34	Y34	Z34	X35	Y35	Z35	X36	Y36	Z36	X37	Y37	Z37	X38	Y38	Z38	X39	Y39	Z39	X40	Y40	Z40	X41	Y41	Z41	X42	Y42	Z42	X43	Y43	Z43	X44	Y44	Z44	X45	Y45	Z45	X46	Y46	Z46	X47	Y47	Z47	X48	Y48	Z48	X49	Y49	Z49	X50	Y50	Z50	X51	Y51	Z51	X52	Y52	Z52	X53	Y53	Z53	

358	3.57	371.1580200195312	1036.178344726562	-87.38258361816406	364.315185546875	1045.975341796875	32.18981170654297	365.7018737792969	1126.529296875	-15.21160221099854	104.7268905639648	1297.0693359375	-18.47731781005859	363.7898559570312	1253.080688476562	-25.1766357421875	283.7485046386719	1510.921142578125	-21.76821136474609	124.4469680786133	1415.46484375	-18.96900749206543	367.9724731445312	1377.03271484375	-97.34770965576172	304.6946716308594	1471.442626953125	89.37174987792969	215.6801910400391	1468.561767578125	148.2712554931641	258.4460754394531	1353.446411132812	227.9457244873047	279.8239135742188	1144.955078125	256.8687133789062	349.5645751953125	1140.05517578125	204.1219940185547	242.2744598388672	892.199462890625	219.0195922851562	277.0442810058594	888.6348876953125	296.7078552246094	282.1744079589844	1037.124877929688	276.5660705566406	297.3081665039062	704.3717041015625	236.5800628662109	286.6505737304688	798.5853271484375	297.77490234375	241.7823028564453	785.9329223632812	247.5697937011719	225.1440887451172	1464.873168945312	-189.3714294433594	246.1181640625	1401.2314453125	-257.6728515625	266.4271545410156	1120.118286132812	-297.6187133789062	300.9701538085938	1110.262939453125	-209.2441864013672	116.0138854980469	915.4673461914062	-261.6336059570312	171.2993621826172	896.8844604492188	-323.7751159667969	237.6289825439453	1052.888671875	-311.3630981445312	87.5902099609375	723.8618774414062	-257.9980163574219	67.55831146240234	798.3795166015625	-280.1297912597656	123.6738510131836	793.2053833007812	-327.1137390136719	240.9410095214844	1665.269775390625	-70.57476806640625	37.43595504760742	1701.316650390625	23.73724555969238	37.58926391601562	1698.992553710938	-76.35335540771484	195.9676818847656	1672.50439453125	62.05282974243164	253.6840667724609	989.6616821289062	167.8525543212891	284.25244140625	988.9363403320312	-200.3429107666016	183.2812957763672	1033.362060546875	-170.4270477294922	157.5618286132812	1026.815063476562	107.1727066040039	126.6048431396484	516.3665161132812	126.2129669189453	161.0157012939453	654.8431396484375	153.8928375244141	181.0474548339844	33.41762924194336	130.1556549072266	155.7469940185547	285.7503967285156	136.3210296630859	-28.20246696472168	51.83341217041016	63.79827499389648	40.02864456176758	40.06493759155273	24.59984588623047	52.21990203857422	39.38014602661133	137.7268371582031	245.9691619873047	41.23821640014648	80.49908447265625	260.7096252441406	497.8704223632812	-151.9344482421875	433.6762084960938	35.3230094909668	-117.8198089599609	274.38037109375	376.9449157714844	-133.3197021484375	223.2153778076172	42.19436645507812	-78.24639129638672	277.6016845703125	40.28771209716797	-35.52722930908203	324.6215515136719	31.55783843994141	-147.3381652832031	495.0466918945312	44.4766960144043	-57.08921051025391	229.1445159912109	761.3624267578125	-199.6620330810547	
359	3.58	375.7694396972656	1036.355224609375	-89.35252380371094	369.0602416992188	1046.187744140625	30.23344039916992	370.1248474121094	1126.955444335938	-17.20597648620605	108.5393524169922	1296.51025390625	-20.21743392944336	367.7687072753906	1253.4794921875	-27.14565086364746	286.7625122070312	1511.027954101562	-23.53873825073242	127.8208541870117	1414.9921875	-20.65643882751465	371.3736267089844	1377.46826171875	-99.35025787353516	307.8715209960938	1471.571411132812	87.55793762207031	218.9131469726562	1468.365234375	146.5538940429688	262.2580261230469	1353.36279296875	226.0681915283203	284.830810546875	1145.100341796875	254.9936828613281	354.2929077148438	1140.479858398438	201.9307403564453	248.8896331787109	892.0042114257812	217.9260101318359	283.8529052734375	888.9277954101562	295.4257507324219	287.9225463867188	1037.3525390625	274.8878784179688	305.8131103515625	704.7056884765625	235.7200164794922	294.3610229492188	798.9823608398438	296.7190856933594	249.4467163085938	785.73974609375	246.6235046386719	228.1396942138672	1464.869262695312	-191.0688018798828	249.1199951171875	1401.388793945312	-259.4878540039062	269.2665100097656	1120.202758789062	-299.7359924316406	304.2745361328125	1110.304321289062	-211.5730895996094	117.6591796875	916.7403564453125	-262.4626159667969	172.4477844238281	897.4378051757812	-324.7803039550781	239.9927520751953	1053.042724609375	-313.2251281738281	87.11224365234375	725.54638671875	-258.1771240234375	67.85015106201172	800.1776123046875	-280.4754638671875	123.7554092407227	794.2194213867188	-327.5971984863281	243.6752777099609	1665.146728515625	-72.17447662353516	40.14773941040039	1700.794189453125	22.23021125793457	40.24415588378906	1698.51171875	-77.88006591796875	198.7424774169922	1672.210205078125	60.47927093505859	258.6453857421875	989.7196655273438	165.9925994873047	288.9023132324219	988.9776611328125	-202.2949829101562	187.8620147705078	1033.128173828125	-172.3085479736328	162.3574829101562	1026.766723632812	105.5265502929688	129.5172576904297	516.9517822265625	125.3421096801758	164.8759460449219	655.2039794921875	152.8881988525391	181.2603607177734	33.56956100463867	130.0254974365234	157.7919006347656	286.2571411132812	135.9032745361328	-27.57860946655273	53.80459213256836	63.48507690429688	40.65156936645508	41.30381393432617	24.34544563293457	52.66041946411133	40.2004280090332	137.4518280029297	246.4205322265625	40.86312484741211	80.45870971679688	264.6651000976562	497.8230285644531	-152.7289276123047	434.0880432128906	34.45411682128906	-117.9033508300781	277.287841796875	376.9041442871094	-133.7142486572266	223.4464263916016	42.24706649780273	-78.11908721923828	277.734375	40.08268737792969	-35.39153289794922	324.7607727050781	31.57285118103027	-147.2959442138672	495.4028930664062	42.7528076171875	-56.92686080932617	233.7636871337891	761.41796875	-201.2977294921875	
360	3.59	380.2781982421875	1036.639282226562	-91.30101776123047	373.737548828125	1046.475341796875	28.29885101318359	374.4792175292969	1127.447998046875	-19.1749382019043	112.2959518432617	1296.055053710938	-21.90023231506348	371.7047119140625	1253.94873046875	-29.09296417236328	289.7525634765625	1511.212890625	-25.2939510345459	131.164306640625	1414.628173828125	-22.29938507080078	374.7317199707031	1377.970092773438	-101.3301773071289	311.0446166992188	1471.782592773438	85.75878143310547	222.1681060791016	1468.258666992188	144.8649597167969	266.0545043945312	1353.358642578125	224.2119750976562	289.7457580566406	1145.291015625	253.1322021484375	358.8940734863281	1140.91796875	199.7224426269531	255.0943450927734	891.9199829101562	216.7321624755859	290.3189392089844	889.2579345703125	294.0225524902344	293.4761352539062	1037.618896484375	273.1734313964844	313.537841796875	705.0838012695312	234.5968933105469	301.5484619140625	799.404052734375	295.4661254882812	256.4812927246094	785.698974609375	245.5189971923828	231.0947113037109	1464.922241210938	-192.7424774169922	252.0735778808594	1401.594604492188	-261.2710876464844	272.1215515136719	1120.345581054688	-301.8329162597656	307.6127624511719	1110.417724609375	-213.8854217529297	119.455924987793	917.9913330078125	-263.2763366699219	173.7817993164062	898.0052490234375	-325.7577819824219	242.4151000976562	1053.256103515625	-315.0641784667969	86.88883972167969	727.2330322265625	-258.3165283203125	68.33069610595703	801.974365234375	-280.8025207519531	124.0741195678711	795.23388671875	-328.0486450195312	246.3699798583984	1665.117065429688	-73.76737976074219	42.80971527099609	1700.353759765625	20.73626327514648	42.84537506103516	1698.101318359375	-79.38824462890625	201.4857940673828	1672.019409179688	58.91326141357422	263.5743408203125	989.8283081054688	164.1820831298828	293.4130859375	989.1365356445312	-204.1917114257812	192.3229370117188	1032.98291015625	-174.1173095703125	167.0797271728516	1026.804077148438	104.0078811645508	132.5119476318359	517.55859375	124.5065994262695	168.7797088623047	655.596923828125	151.9694061279297	181.5110015869141	33.74741744995117	129.8789520263672	159.9477691650391	286.7897033691406	135.5026702880859	-26.85989761352539	56.01576232910156	63.13084030151367	41.37077331542969	42.74235153198242	24.06310081481934	53.16625213623047	41.16469573974609	137.1846618652344	246.9307098388672	40.39372253417969	80.44529724121094	268.4245300292969	497.8855285644531	-153.5644226074219	434.4481811523438	33.75807571411133	-117.9954147338867	280.07080078125	376.9609680175781	-134.1641387939453	223.6634063720703	42.31063842773438	-77.98477935791016	277.8292236328125	39.92194747924805	-35.25467681884766	324.8678894042969	31.61468887329102	-147.2243957519531	495.6973876953125	41.28159713745117	-56.79673385620117	238.3785247802734	761.6857299804688	-202.9813232421875	
361	3.6	384.6675720214844	1037.0419921875	-93.22091674804688	378.3252868652344	1046.845825195312	26.3909854888916	378.7555236816406	1128.0068359375	-21.11137008666992	115.9884490966797	1295.71875	-23.51632499694824	375.5806579589844	1254.489135742188	-31.01563262939453	292.7220153808594	1511.478271484375	-27.02617263793945	134.4695739746094	1414.382934570312	-23.89088439941406	378.0418395996094	1378.536499023438	-103.276496887207	314.2183837890625	1472.0810546875	83.98043823242188	225.4461364746094	1468.250244140625	143.2110748291016	269.834716796875	1353.44091796875	222.3828125	294.5548095703125	1145.533081054688	251.2884216308594	363.3687744140625	1141.375854492188	197.5106201171875	260.8720703125	891.9524536132812	215.4307098388672	296.4304504394531	889.6213989257812	292.5000305175781	298.8270263671875	1037.925537109375	271.42578125	320.4699401855469	705.49462890625	233.2125701904297	308.2001953125	799.84130859375	294.0180053710938	262.8932189941406	785.797119140625	244.2647247314453	234.0103912353516	1465.041259765625	-194.3862457275391	254.981689453125	1401.854858398438	-263.0164794921875	274.9820861816406	1120.554931640625	-303.897705078125	310.9663696289062	1110.608764648438	-216.1720428466797	121.4148406982422	919.2151489257812	-264.0680541992188	175.3103637695312	898.5889892578125	-326.7087707519531	244.8950347900391	1053.534057617188	-316.8709106445312	86.94965362548828	728.8984375	-258.4294738769531	68.99430847167969	803.75634765625	-281.1165466308594	124.6540603637695	796.2435302734375	-328.474609375	249.0285949707031	1665.1845703125	-75.35068511962891	45.42614364624023	1700.006469726562	19.256591796875	45.40113067626953	1697.77099609375	-80.87384796142578	204.2032470703125	1671.941772460938	57.35766983032227	268.4547119140625	989.9939575195312	162.4259033203125	297.7666931152344	989.4217529296875	-206.0245819091797	196.6470489501953	1032.938110351562	-175.8394317626953	171.717041015625	1026.928100585938	102.6160507202148	135.5794372558594	518.1900634765625	123.7015151977539	172.6906280517578	656.0269165039062	151.134765625	181.8182525634766	33.96795272827148	129.7027435302734	162.1988067626953	287.35302734375	135.1048583984375	-26.0408878326416	58.44051742553711	62.76774597167969	42.17179870605469	44.35938262939453	23.77251243591309	53.74120330810547	42.29420471191406	136.9307708740234	247.4775543212891	39.84588623046875	80.4466552734375	272.0064086914062	498.0643005371094	-154.4481048583984	434.7491455078125	33.21201705932617	-118.0912780761719	282.7672424316406	377.1102294921875	-134.6858215332031	223.8680419921875	42.38258743286133	-77.85027313232422	277.90087890625	39.80526733398438	-35.12742233276367	324.9469604492188	31.67323303222656	-147.1404113769531	495.9309387207031	40.05841445922852	-56.70276260375977	242.9079895019531	762.1209716796875	-204.6716918945312	
